<?xml version="1.0" standalone="no"?>
<!DOCTYPE svg PUBLIC "-//W3C//DTD SVG 20010904//EN"
 "http://www.w3.org/TR/2001/REC-SVG-20010904/DTD/svg10.dtd">
<svg version="1.0" xmlns="http://www.w3.org/2000/svg"
 width="700.000000pt" height="700.000000pt" viewBox="0 0 700.000000 700.000000"
 preserveAspectRatio="xMidYMid meet">
<metadata>
Created by potrace 1.14, written by Peter Selinger 2001-2017
</metadata>
<g transform="translate(0.000000,700.000000) scale(0.100000,-0.100000)"
fill="#000000" stroke="none">
<path d="M3289 6926 c-2 -2 -44 -7 -94 -11 -141 -11 -163 -14 -240 -29 -11 -2
-41 -6 -66 -10 -66 -10 -102 -16 -121 -22 -9 -3 -26 -7 -37 -9 -109 -24 -190
-47 -326 -92 -157 -51 -380 -144 -494 -205 -141 -75 -186 -101 -213 -119 -14
-11 -29 -19 -32 -19 -12 0 -290 -194 -322 -224 -6 -6 -28 -24 -49 -41 -103
-80 -375 -346 -455 -445 -129 -158 -263 -350 -348 -495 -41 -72 -162 -309
-162 -318 0 -3 -13 -34 -29 -69 -27 -59 -98 -249 -106 -286 -3 -9 -16 -55 -30
-102 -24 -78 -71 -281 -79 -340 -2 -14 -7 -41 -10 -60 -64 -396 -51 -850 35
-1245 48 -221 123 -455 200 -622 10 -24 19 -45 19 -49 0 -3 29 -63 64 -132
420 -838 1150 -1460 2056 -1752 132 -42 430 -109 560 -125 25 -3 52 -8 60 -10
42 -11 238 -20 430 -20 256 0 368 9 582 45 118 20 131 22 226 44 244 56 584
182 802 298 335 178 590 366 855 632 491 493 802 1077 941 1771 6 28 13 73 19
120 3 22 7 54 10 70 35 228 38 634 5 850 -5 33 -11 80 -14 105 -29 221 -131
593 -219 792 -8 18 -23 51 -32 73 -125 286 -318 591 -529 840 -79 93 -282 295
-379 379 -519 446 -1186 737 -1859 812 -29 3 -69 8 -88 11 -42 6 -525 14 -531
9z"/>
</g>
</svg>
